<svg width="162" height="28" viewBox="0 0 162 28" fill="none" xmlns="http://www.w3.org/2000/svg">
<path d="M25.6899 19.475L26.8099 21.19C25.6666 25.2033 23.2982 27.21 19.7049 27.21C18.8882 27.21 18.1766 27.0583 17.5699 26.755C16.9866 26.4517 16.5432 26.09 16.2399 25.67C15.9366 25.25 15.6916 24.7133 15.5049 24.06C15.2482 23.08 15.1082 21.785 15.0849 20.175C15.0849 18.565 14.8866 17.4567 14.4899 16.85C14.1166 16.2433 13.3932 15.905 12.3199 15.835L12.7049 12.86C12.7516 12.86 12.7866 12.86 12.8099 12.86C14.1632 12.86 15.2832 12.475 16.1699 11.705C17.1266 10.8417 17.6049 9.73334 17.6049 8.38C17.6049 7.02667 16.9632 5.88333 15.6799 4.95C14.4199 4.01667 12.7866 3.55 10.7799 3.55C8.18989 3.55 6.19489 4.19167 4.79489 5.475C4.04823 6.175 3.67489 7.015 3.67489 7.995C3.67489 9.23167 4.61989 9.97834 6.50989 10.235L6.01989 12.86C4.59656 12.79 3.33656 12.3117 2.23989 11.425C1.14323 10.5383 0.594893 9.395 0.594893 7.995C0.594893 5.545 1.62156 3.66667 3.67489 2.36C5.72823 1.03 8.32989 0.365001 11.4799 0.365001C13.5099 0.365001 15.2949 0.610002 16.8349 1.1C19.4716 1.98667 21.2216 3.52667 22.0849 5.72C22.3649 6.49 22.5049 7.12 22.5049 7.61C22.5049 8.07667 22.5049 8.39167 22.5049 8.555C22.4116 9.83834 21.9332 11.0983 21.0699 12.335C20.2299 13.5717 18.9582 14.4233 17.2549 14.89C18.2816 15.1 18.9816 15.5433 19.3549 16.22C19.7282 16.8967 19.9266 17.9233 19.9499 19.3C19.9732 21.6567 20.0782 23.0917 20.2649 23.605C20.4749 24.095 20.8949 24.34 21.5249 24.34C23.2282 24.34 24.6166 22.7183 25.6899 19.475ZM4.23489 27.21C2.99823 27.21 2.00656 26.8367 1.25989 26.09C0.513226 25.3433 0.139893 24.4217 0.139893 23.325C0.139893 20.4783 2.22823 18.0983 6.40489 16.185C7.24489 9.65167 7.67656 6.30333 7.69989 6.14C8.67989 5.51 9.78823 5.195 11.0249 5.195C11.5382 5.195 12.1216 5.265 12.7749 5.405L10.5699 20.35C9.86989 24.9233 7.75823 27.21 4.23489 27.21ZM2.72989 22.905C2.72989 23.6517 3.12656 24.025 3.91989 24.025C4.85323 24.025 5.44823 23.185 5.70489 21.505L6.01989 19.125C3.82656 20.4083 2.72989 21.6683 2.72989 22.905Z" fill="#9E5BE1"/>
<path d="M30.623 19.16C32.0696 18.8567 33.143 18.2733 33.843 17.41C34.5663 16.5467 34.928 15.7183 34.928 14.925C34.928 14.1083 34.7063 13.56 34.263 13.28C33.843 12.9767 33.3763 12.825 32.863 12.825C31.7663 12.825 30.798 13.4433 29.958 14.68C29.1413 15.8933 28.733 17.3517 28.733 19.055C28.733 20.735 29.1296 21.995 29.923 22.835C30.7396 23.6517 31.743 24.06 32.933 24.06C34.683 24.06 36.363 23.4533 37.973 22.24C39.583 21.0267 40.8896 19.44 41.893 17.48C42.4063 17.97 42.873 18.5767 43.293 19.3C42.523 21.05 41.158 22.765 39.198 24.445C38.218 25.2617 37.0513 25.9267 35.698 26.44C34.368 26.9533 32.9913 27.21 31.568 27.21C29.2346 27.21 27.3913 26.4983 26.038 25.075C24.5913 23.535 23.868 21.5633 23.868 19.16C23.868 16.7567 24.7663 14.6567 26.563 12.86C28.383 11.0633 30.553 10.165 33.073 10.165C34.8696 10.165 36.328 10.5617 37.448 11.355C38.568 12.125 39.1396 13.175 39.163 14.505C39.163 16.3017 38.4396 17.76 36.993 18.88C35.5696 20 33.6096 20.7817 31.113 21.225L30.623 19.16Z" fill="black"/>
<path d="M50.2867 27L51.6167 15.38C51.6167 14.7267 51.4534 14.19 51.1267 13.77C50.8234 13.3267 50.275 13.105 49.4817 13.105C48.6884 13.105 48.035 13.49 47.5217 14.26C47.0084 15.0067 46.6817 15.8 46.5417 16.64C45.725 22.45 45.27 25.9033 45.1767 27H40.4867L42.4117 10.55C43.3917 10.2933 44.1384 10.165 44.6517 10.165C46.1217 10.165 46.9267 10.655 47.0667 11.635C48.21 10.655 49.4584 10.165 50.8117 10.165C53.5184 10.165 55.245 10.97 55.9917 12.58C57.135 10.9467 58.7684 10.13 60.8917 10.13C62.455 10.13 63.6917 10.5383 64.6017 11.355C65.5117 12.1483 65.9667 13.1517 65.9667 14.365C65.9667 14.715 65.8967 15.3333 65.7567 16.22C65.22 19.72 64.9517 21.7733 64.9517 22.38C64.9517 23.4767 65.3134 24.025 66.0367 24.025C66.6434 24.025 67.285 23.6283 67.9617 22.835C68.6617 22.0183 69.2217 20.77 69.6417 19.09C70.435 19.93 70.9134 20.595 71.0767 21.085C69.8634 25.145 67.7167 27.175 64.6367 27.175C63.19 27.175 62.1167 26.7317 61.4167 25.845C60.7167 24.9583 60.3667 24.025 60.3667 23.045L61.2067 15.31C61.2067 14.68 61.0434 14.155 60.7167 13.735C60.39 13.315 59.865 13.105 59.1417 13.105C58.4417 13.105 57.8234 13.3733 57.2867 13.91C56.75 14.4467 56.3767 15.135 56.1667 15.975C55.4667 21.9017 55.0117 25.5767 54.8017 27H50.2867Z" fill="black"/>
<path d="M71.2066 1.24C71.7432 0.680001 72.3966 0.400001 73.1666 0.400001C73.9366 0.400001 74.5899 0.680001 75.1266 1.24C75.6866 1.77667 75.9666 2.43 75.9666 3.2C75.9666 3.97 75.6866 4.62334 75.1266 5.16C74.5899 5.69667 73.9366 5.965 73.1666 5.965C72.3966 5.965 71.7432 5.69667 71.2066 5.16C70.6699 4.62334 70.4016 3.97 70.4016 3.2C70.4016 2.43 70.6699 1.77667 71.2066 1.24ZM69.7716 11.495C70.0049 11.075 70.4482 10.76 71.1016 10.55C71.7549 10.3167 72.3966 10.2 73.0266 10.2C73.6799 10.2 74.2516 10.2817 74.7416 10.445C73.8316 17.4683 73.3766 21.015 73.3766 21.085C73.2599 21.5517 73.2016 21.9483 73.2016 22.275C73.2016 22.5783 73.2249 22.8467 73.2716 23.08C73.3649 23.6867 73.7849 23.99 74.5316 23.99C75.3016 23.99 76.0016 23.5 76.6316 22.52C77.2849 21.5167 77.7749 20.385 78.1016 19.125C78.2649 19.2183 78.5216 19.4983 78.8716 19.965C79.2216 20.4317 79.4316 20.7817 79.5016 21.015C79.0349 22.8817 78.2416 24.3867 77.1216 25.53C76.0016 26.6733 74.6599 27.245 73.0966 27.245C71.5332 27.245 70.3666 26.86 69.5966 26.09C68.8499 25.32 68.4766 24.3283 68.4766 23.115C68.4766 22.8583 68.4882 22.59 68.5116 22.31L69.7716 11.495Z" fill="black"/>
<path d="M86.6222 23.08L87.4622 15.275C87.4622 14.645 87.2988 14.12 86.9722 13.7C86.6455 13.28 86.0972 13.07 85.3272 13.07C84.5805 13.07 83.9388 13.4083 83.4022 14.085C82.8888 14.7383 82.5622 15.5667 82.4222 16.57C81.5822 22.9633 81.1388 26.44 81.0922 27H76.3672L78.2922 10.515C79.2722 10.2583 80.0188 10.13 80.5322 10.13C82.0955 10.13 82.9122 10.7017 82.9822 11.845C84.1255 10.725 85.4905 10.165 87.0772 10.165C88.6872 10.165 89.9472 10.5617 90.8572 11.355C91.7672 12.1483 92.2222 13.1517 92.2222 14.365C92.2222 14.6917 92.1522 15.31 92.0122 16.22C91.4755 19.7667 91.2072 21.8317 91.2072 22.415C91.2072 23.4883 91.5688 24.025 92.2922 24.025C93.8788 24.025 95.0805 22.3683 95.8972 19.055C96.6905 19.895 97.1688 20.56 97.3322 21.05C96.0955 25.1567 93.9488 27.21 90.8922 27.21C89.4455 27.21 88.3722 26.7667 87.6722 25.88C86.9722 24.9933 86.6222 24.06 86.6222 23.08Z" fill="black"/>
<path d="M108.167 1.765C108.33 1.36834 108.692 1.04167 109.252 0.785002C109.835 0.505002 110.523 0.365001 111.317 0.365001C112.133 0.365001 112.74 0.481668 113.137 0.715001C112.903 2.535 112.53 5.39333 112.017 9.29C110.943 17.4333 110.407 21.925 110.407 22.765C110.407 23.5817 110.757 23.99 111.457 23.99C112.063 23.99 112.693 23.6167 113.347 22.87C114 22.1 114.595 20.8517 115.132 19.125C115.785 19.755 116.24 20.4433 116.497 21.19C115.657 23.9667 114.338 25.7633 112.542 26.58C111.725 26.9767 110.955 27.175 110.232 27.175C108.155 27.175 106.767 26.4283 106.067 24.935C104.853 26.4517 103.302 27.21 101.412 27.21C99.5216 27.21 97.9232 26.5683 96.6166 25.285C95.3332 24.0017 94.6916 22.31 94.6916 20.21C94.6916 17.1533 95.5899 14.715 97.3866 12.895C99.1832 11.075 101.458 10.165 104.212 10.165C104.282 10.165 104.352 10.165 104.422 10.165C105.378 10.165 106.277 10.305 107.117 10.585L108.167 1.765ZM104.737 12.895C103.243 12.895 102.053 13.4667 101.167 14.61C100.303 15.73 99.7899 17.41 99.6266 19.65C99.6032 19.86 99.5916 20.0583 99.5916 20.245C99.5916 21.3883 99.8599 22.2983 100.397 22.975C100.957 23.6517 101.668 23.99 102.532 23.99C104.002 23.99 105.11 22.9517 105.857 20.875L106.767 13.35C105.997 13.0467 105.32 12.895 104.737 12.895Z" fill="black"/>
<path d="M135.916 0.610002C136.406 0.423335 137.095 0.330002 137.981 0.330002C138.868 0.330002 139.661 0.388335 140.361 0.505002C139.638 5.87167 139.066 10.7367 138.646 15.1C138.25 19.44 138.028 21.7267 137.981 21.96C137.958 22.1933 137.946 22.4033 137.946 22.59C137.97 23.1967 138.261 23.5 138.821 23.5C140.221 23.5 142.17 21.89 144.666 18.67C145.11 19.9067 145.366 20.735 145.436 21.155C144.316 22.9283 142.963 24.3867 141.376 25.53C139.813 26.65 138.331 27.21 136.931 27.21C135.531 27.21 134.563 26.8483 134.026 26.125C133.49 25.4017 133.221 24.5967 133.221 23.71C133.221 23.5 133.245 23.0917 133.291 22.485C133.361 21.8783 133.828 18.0983 134.691 11.145L128.951 24.41H125.976L124.261 11.355L121.811 22.205C121.415 23.9317 120.761 25.2033 119.851 26.02C118.965 26.8367 117.985 27.245 116.911 27.245C115.838 27.245 114.963 26.93 114.286 26.3C113.563 25.6233 113.201 24.6667 113.201 23.43C113.201 20.9567 115.115 18.845 118.941 17.095C121.018 7.13167 122.138 1.61333 122.301 0.540001C122.861 0.400002 123.608 0.330002 124.541 0.330002C125.498 0.330002 126.151 0.353335 126.501 0.400001H126.746L128.916 16.675L135.916 0.785002V0.610002ZM115.686 22.835C115.686 23.5817 115.978 23.955 116.561 23.955C116.958 23.955 117.285 23.64 117.541 23.01C117.868 22.24 118.136 21.225 118.346 19.965C116.573 20.9683 115.686 21.925 115.686 22.835Z" fill="black"/>
<path d="M148.816 19.16C150.263 18.8567 151.336 18.2733 152.036 17.41C152.76 16.5467 153.121 15.7183 153.121 14.925C153.121 14.1083 152.9 13.56 152.456 13.28C152.036 12.9767 151.57 12.825 151.056 12.825C149.96 12.825 148.991 13.4433 148.151 14.68C147.335 15.8933 146.926 17.3517 146.926 19.055C146.926 20.735 147.323 21.995 148.116 22.835C148.933 23.6517 149.936 24.06 151.126 24.06C152.876 24.06 154.556 23.4533 156.166 22.24C157.776 21.0267 159.083 19.44 160.086 17.48C160.6 17.97 161.066 18.5767 161.486 19.3C160.716 21.05 159.351 22.765 157.391 24.445C156.411 25.2617 155.245 25.9267 153.891 26.44C152.561 26.9533 151.185 27.21 149.761 27.21C147.428 27.21 145.585 26.4983 144.231 25.075C142.785 23.535 142.061 21.5633 142.061 19.16C142.061 16.7567 142.96 14.6567 144.756 12.86C146.576 11.0633 148.746 10.165 151.266 10.165C153.063 10.165 154.521 10.5617 155.641 11.355C156.761 12.125 157.333 13.175 157.356 14.505C157.356 16.3017 156.633 17.76 155.186 18.88C153.763 20 151.803 20.7817 149.306 21.225L148.816 19.16Z" fill="black"/>
</svg>
