<svg width="254" height="43" viewBox="0 0 254 43" fill="none" xmlns="http://www.w3.org/2000/svg">
<path d="M40.5127 30.175L42.2727 32.87C40.4761 39.1767 36.7544 42.33 31.1077 42.33C29.8244 42.33 28.7061 42.0917 27.7527 41.615C26.8361 41.1383 26.1394 40.57 25.6627 39.91C25.1861 39.25 24.8011 38.4067 24.5077 37.38C24.1044 35.84 23.8844 33.805 23.8477 31.275C23.8477 28.745 23.5361 27.0033 22.9127 26.05C22.3261 25.0967 21.1894 24.565 19.5027 24.455L20.1077 19.78C20.1811 19.78 20.2361 19.78 20.2727 19.78C22.3994 19.78 24.1594 19.175 25.5527 17.965C27.0561 16.6083 27.8077 14.8667 27.8077 12.74C27.8077 10.6133 26.7994 8.81666 24.7827 7.34999C22.8027 5.88333 20.2361 5.15 17.0827 5.15C13.0127 5.15 9.87773 6.15833 7.67773 8.175C6.5044 9.275 5.91773 10.595 5.91773 12.135C5.91773 14.0783 7.40273 15.2517 10.3727 15.655L9.60273 19.78C7.36607 19.67 5.38607 18.9183 3.66273 17.525C1.9394 16.1317 1.07773 14.335 1.07773 12.135C1.07773 8.285 2.69107 5.33333 5.91773 3.27999C9.1444 1.19 13.2327 0.144996 18.1827 0.144996C21.3727 0.144996 24.1777 0.529996 26.5977 1.3C30.7411 2.69333 33.4911 5.11333 34.8477 8.56C35.2877 9.77 35.5077 10.76 35.5077 11.53C35.5077 12.2633 35.5077 12.7583 35.5077 13.015C35.3611 15.0317 34.6094 17.0117 33.2527 18.955C31.9327 20.8983 29.9344 22.2367 27.2577 22.97C28.8711 23.3 29.9711 23.9967 30.5577 25.06C31.1444 26.1233 31.4561 27.7367 31.4927 29.9C31.5294 33.6033 31.6944 35.8583 31.9877 36.665C32.3177 37.435 32.9777 37.82 33.9677 37.82C36.6444 37.82 38.8261 35.2717 40.5127 30.175ZM6.79773 42.33C4.8544 42.33 3.29607 41.7433 2.12273 40.57C0.949399 39.3967 0.362732 37.9483 0.362732 36.225C0.362732 31.7517 3.6444 28.0117 10.2077 25.005C11.5277 14.7383 12.2061 9.47666 12.2427 9.22C13.7827 8.23 15.5244 7.735 17.4677 7.735C18.2744 7.735 19.1911 7.845 20.2177 8.065L16.7527 31.55C15.6527 38.7367 12.3344 42.33 6.79773 42.33ZM4.43273 35.565C4.43273 36.7383 5.05607 37.325 6.30273 37.325C7.7694 37.325 8.7044 36.005 9.10773 33.365L9.60273 29.625C6.15607 31.6417 4.43273 33.6217 4.43273 35.565Z" fill="#9E5BE1"/>
<path d="M48.2647 29.68C50.5381 29.2033 52.2247 28.2867 53.3247 26.93C54.4614 25.5733 55.0297 24.2717 55.0297 23.025C55.0297 21.7417 54.6814 20.88 53.9847 20.44C53.3247 19.9633 52.5914 19.725 51.7847 19.725C50.0614 19.725 48.5397 20.6967 47.2197 22.64C45.9364 24.5467 45.2947 26.8383 45.2947 29.515C45.2947 32.155 45.9181 34.135 47.1647 35.455C48.4481 36.7383 50.0247 37.38 51.8947 37.38C54.6447 37.38 57.2847 36.4267 59.8147 34.52C62.3447 32.6133 64.3981 30.12 65.9747 27.04C66.7814 27.81 67.5147 28.7633 68.1747 29.9C66.9647 32.65 64.8197 35.345 61.7397 37.985C60.1997 39.2683 58.3664 40.3133 56.2397 41.12C54.1497 41.9267 51.9864 42.33 49.7497 42.33C46.0831 42.33 43.1864 41.2117 41.0597 38.975C38.7864 36.555 37.6497 33.4567 37.6497 29.68C37.6497 25.9033 39.0614 22.6033 41.8847 19.78C44.7447 16.9567 48.1547 15.545 52.1147 15.545C54.9381 15.545 57.2297 16.1683 58.9897 17.415C60.7497 18.625 61.6481 20.275 61.6847 22.365C61.6847 25.1883 60.5481 27.48 58.2747 29.24C56.0381 31 52.9581 32.2283 49.0347 32.925L48.2647 29.68Z" fill="black"/>
<path d="M79.1648 42L81.2548 23.74C81.2548 22.7133 80.9982 21.87 80.4848 21.21C80.0082 20.5133 79.1465 20.165 77.8998 20.165C76.6532 20.165 75.6265 20.77 74.8198 21.98C74.0132 23.1533 73.4998 24.4 73.2798 25.72C71.9965 34.85 71.2815 40.2767 71.1348 42H63.7648L66.7898 16.15C68.3298 15.7467 69.5032 15.545 70.3098 15.545C72.6198 15.545 73.8848 16.315 74.1048 17.855C75.9015 16.315 77.8632 15.545 79.9898 15.545C84.2432 15.545 86.9565 16.81 88.1298 19.34C89.9265 16.7733 92.4932 15.49 95.8298 15.49C98.2865 15.49 100.23 16.1317 101.66 17.415C103.09 18.6617 103.805 20.2383 103.805 22.145C103.805 22.695 103.695 23.6667 103.475 25.06C102.632 30.56 102.21 33.7867 102.21 34.74C102.21 36.4633 102.778 37.325 103.915 37.325C104.868 37.325 105.877 36.7017 106.94 35.455C108.04 34.1717 108.92 32.21 109.58 29.57C110.827 30.89 111.578 31.935 111.835 32.705C109.928 39.085 106.555 42.275 101.715 42.275C99.4415 42.275 97.7548 41.5783 96.6548 40.185C95.5548 38.7917 95.0048 37.325 95.0048 35.785L96.3248 23.63C96.3248 22.64 96.0682 21.815 95.5548 21.155C95.0415 20.495 94.2165 20.165 93.0798 20.165C91.9798 20.165 91.0082 20.5867 90.1648 21.43C89.3215 22.2733 88.7348 23.355 88.4048 24.675C87.3048 33.9883 86.5898 39.7633 86.2598 42H79.1648Z" fill="black"/>
<path d="M112.039 1.51999C112.882 0.639995 113.909 0.199995 115.119 0.199995C116.329 0.199995 117.356 0.639995 118.199 1.51999C119.079 2.36333 119.519 3.39 119.519 4.6C119.519 5.81 119.079 6.83666 118.199 7.68C117.356 8.52333 116.329 8.945 115.119 8.945C113.909 8.945 112.882 8.52333 112.039 7.68C111.196 6.83666 110.774 5.81 110.774 4.6C110.774 3.39 111.196 2.36333 112.039 1.51999ZM109.784 17.635C110.151 16.975 110.847 16.48 111.874 16.15C112.901 15.7833 113.909 15.6 114.899 15.6C115.926 15.6 116.824 15.7283 117.594 15.985C116.164 27.0217 115.449 32.595 115.449 32.705C115.266 33.4383 115.174 34.0617 115.174 34.575C115.174 35.0517 115.211 35.4733 115.284 35.84C115.431 36.7933 116.091 37.27 117.264 37.27C118.474 37.27 119.574 36.5 120.564 34.96C121.591 33.3833 122.361 31.605 122.874 29.625C123.131 29.7717 123.534 30.2117 124.084 30.945C124.634 31.6783 124.964 32.2283 125.074 32.595C124.341 35.5283 123.094 37.8933 121.334 39.69C119.574 41.4867 117.466 42.385 115.009 42.385C112.552 42.385 110.719 41.78 109.509 40.57C108.336 39.36 107.749 37.8017 107.749 35.895C107.749 35.4917 107.767 35.07 107.804 34.63L109.784 17.635Z" fill="black"/>
<path d="M136.263 35.84L137.583 23.575C137.583 22.585 137.327 21.76 136.813 21.1C136.3 20.44 135.438 20.11 134.228 20.11C133.055 20.11 132.047 20.6417 131.203 21.705C130.397 22.7317 129.883 24.0333 129.663 25.61C128.343 35.6567 127.647 41.12 127.573 42H120.148L123.173 16.095C124.713 15.6917 125.887 15.49 126.693 15.49C129.15 15.49 130.433 16.3883 130.543 18.185C132.34 16.425 134.485 15.545 136.978 15.545C139.508 15.545 141.488 16.1683 142.918 17.415C144.348 18.6617 145.063 20.2383 145.063 22.145C145.063 22.6583 144.953 23.63 144.733 25.06C143.89 30.6333 143.468 33.8783 143.468 34.795C143.468 36.4817 144.037 37.325 145.173 37.325C147.667 37.325 149.555 34.7217 150.838 29.515C152.085 30.835 152.837 31.88 153.093 32.65C151.15 39.1033 147.777 42.33 142.973 42.33C140.7 42.33 139.013 41.6333 137.913 40.24C136.813 38.8467 136.263 37.38 136.263 35.84Z" fill="black"/>
<path d="M170.119 2.345C170.376 1.72166 170.944 1.20833 171.824 0.804997C172.741 0.364996 173.822 0.144996 175.069 0.144996C176.352 0.144996 177.306 0.328329 177.929 0.694995C177.562 3.555 176.976 8.04666 176.169 14.17C174.482 26.9667 173.639 34.025 173.639 35.345C173.639 36.6283 174.189 37.27 175.289 37.27C176.242 37.27 177.232 36.6833 178.259 35.51C179.286 34.3 180.221 32.3383 181.064 29.625C182.091 30.615 182.806 31.6967 183.209 32.87C181.889 37.2333 179.817 40.0567 176.994 41.34C175.711 41.9633 174.501 42.275 173.364 42.275C170.101 42.275 167.919 41.1017 166.819 38.755C164.912 41.1383 162.474 42.33 159.504 42.33C156.534 42.33 154.022 41.3217 151.969 39.305C149.952 37.2883 148.944 34.63 148.944 31.33C148.944 26.5267 150.356 22.695 153.179 19.835C156.002 16.975 159.577 15.545 163.904 15.545C164.014 15.545 164.124 15.545 164.234 15.545C165.737 15.545 167.149 15.765 168.469 16.205L170.119 2.345ZM164.729 19.835C162.382 19.835 160.512 20.7333 159.119 22.53C157.762 24.29 156.956 26.93 156.699 30.45C156.662 30.78 156.644 31.0917 156.644 31.385C156.644 33.1817 157.066 34.6117 157.909 35.675C158.789 36.7383 159.907 37.27 161.264 37.27C163.574 37.27 165.316 35.6383 166.489 32.375L167.919 20.55C166.709 20.0733 165.646 19.835 164.729 19.835Z" fill="black"/>
<path d="M213.726 0.529997C214.496 0.236663 215.577 0.0899963 216.971 0.0899963C218.364 0.0899963 219.611 0.181663 220.711 0.364996C219.574 8.79833 218.676 16.4433 218.016 23.3C217.392 30.12 217.044 33.7133 216.971 34.08C216.934 34.4467 216.916 34.7767 216.916 35.07C216.952 36.0233 217.411 36.5 218.291 36.5C220.491 36.5 223.552 33.97 227.476 28.91C228.172 30.8533 228.576 32.155 228.686 32.815C226.926 35.6017 224.799 37.8933 222.306 39.69C219.849 41.45 217.521 42.33 215.321 42.33C213.121 42.33 211.599 41.7617 210.756 40.625C209.912 39.4883 209.491 38.2233 209.491 36.83C209.491 36.5 209.527 35.8583 209.601 34.905C209.711 33.9517 210.444 28.0117 211.801 17.085L202.781 37.93H198.106L195.411 17.415L191.561 34.465C190.937 37.1783 189.911 39.1767 188.481 40.46C187.087 41.7433 185.547 42.385 183.861 42.385C182.174 42.385 180.799 41.89 179.736 40.9C178.599 39.8367 178.031 38.3333 178.031 36.39C178.031 32.5033 181.037 29.185 187.051 26.435C190.314 10.7783 192.074 2.10666 192.331 0.419995C193.211 0.199996 194.384 0.0899963 195.851 0.0899963C197.354 0.0899963 198.381 0.126663 198.931 0.199995H199.316L202.726 25.775L213.726 0.804997V0.529997ZM181.936 35.455C181.936 36.6283 182.394 37.215 183.311 37.215C183.934 37.215 184.447 36.72 184.851 35.73C185.364 34.52 185.786 32.925 186.116 30.945C183.329 32.5217 181.936 34.025 181.936 35.455Z" fill="black"/>
<path d="M233.997 29.68C236.27 29.2033 237.957 28.2867 239.057 26.93C240.194 25.5733 240.762 24.2717 240.762 23.025C240.762 21.7417 240.414 20.88 239.717 20.44C239.057 19.9633 238.324 19.725 237.517 19.725C235.794 19.725 234.272 20.6967 232.952 22.64C231.669 24.5467 231.027 26.8383 231.027 29.515C231.027 32.155 231.65 34.135 232.897 35.455C234.18 36.7383 235.757 37.38 237.627 37.38C240.377 37.38 243.017 36.4267 245.547 34.52C248.077 32.6133 250.13 30.12 251.707 27.04C252.514 27.81 253.247 28.7633 253.907 29.9C252.697 32.65 250.552 35.345 247.472 37.985C245.932 39.2683 244.099 40.3133 241.972 41.12C239.882 41.9267 237.719 42.33 235.482 42.33C231.815 42.33 228.919 41.2117 226.792 38.975C224.519 36.555 223.382 33.4567 223.382 29.68C223.382 25.9033 224.794 22.6033 227.617 19.78C230.477 16.9567 233.887 15.545 237.847 15.545C240.67 15.545 242.962 16.1683 244.722 17.415C246.482 18.625 247.38 20.275 247.417 22.365C247.417 25.1883 246.28 27.48 244.007 29.24C241.77 31 238.69 32.2283 234.767 32.925L233.997 29.68Z" fill="black"/>
</svg>
